<svg xmlns="http://www.w3.org/2000/svg" viewBox="0 0 32 32">
  <defs>
    <linearGradient id="grad" x1="0%" y1="0%" x2="100%" y2="100%">
      <stop offset="0%" style="stop-color:#42a5f5;stop-opacity:1" />
      <stop offset="100%" style="stop-color:#1e88e5;stop-opacity:1" />
    </linearGradient>
  </defs>
  <circle cx="16" cy="16" r="14" fill="url(#grad)"/>
  <path d="M16 4a3 3 0 0 1 3 3v6a3 3 0 0 1-6 0V7a3 3 0 0 1 3-3z" fill="white"/>
  <path d="M16 14v4" stroke="white" stroke-width="2" stroke-linecap="round"/>
  <circle cx="16" cy="22" r="2" fill="white"/>
  <path d="M23 16v2a7 7 0 0 1-14 0v-2" stroke="white" stroke-width="1.5" fill="none"/>
  <line x1="12" y1="25" x2="12" y2="28" stroke="white" stroke-width="1.5" stroke-linecap="round"/>
  <line x1="8" y1="25" x2="8" y2="28" stroke="white" stroke-width="1.5" stroke-linecap="round"/>
  <line x1="20" y1="25" x2="20" y2="28" stroke="white" stroke-width="1.5" stroke-linecap="round"/>
</svg>
